<?xml version="1.0" encoding="UTF-8" standalone="no"?>
<svg
   xmlns:dc="http://purl.org/dc/elements/1.1/"
   xmlns:cc="http://creativecommons.org/ns#"
   xmlns:rdf="http://www.w3.org/1999/02/22-rdf-syntax-ns#"
   xmlns:svg="http://www.w3.org/2000/svg"
   xmlns="http://www.w3.org/2000/svg"
   viewBox="0 0 666.66669 666.66669"
   height="666.66669"
   width="666.66669"
   xml:space="preserve"
   id="svg2"
   version="1.1"><metadata
     id="metadata8"><rdf:RDF><cc:Work
         rdf:about=""><dc:format>image/svg+xml</dc:format><dc:type
           rdf:resource="http://purl.org/dc/dcmitype/StillImage" /></cc:Work></rdf:RDF></metadata><defs
     id="defs6"><clipPath
       id="clipPath22"
       clipPathUnits="userSpaceOnUse"><path
         id="path20"
         d="M 0,500 H 500 V 0 H 0 Z" /></clipPath><clipPath
       id="clipPath38"
       clipPathUnits="userSpaceOnUse"><path
         id="path36"
         d="m 210.78,404.869 h 78.439 c 0,21.66 -17.559,39.219 -39.219,39.219 v 0 c -21.66,0 -39.22,-17.559 -39.22,-39.219" /></clipPath><clipPath
       id="clipPath46"
       clipPathUnits="userSpaceOnUse"><path
         id="path44"
         d="m 220.706,452.733 h 57.651 v -18.12 h -57.651 z" /></clipPath><clipPath
       id="clipPath62"
       clipPathUnits="userSpaceOnUse"><path
         id="path60"
         d="m 204.349,421.5 h 95.248 v -27.7 h -95.248 z" /></clipPath><clipPath
       id="clipPath78"
       clipPathUnits="userSpaceOnUse"><path
         id="path76"
         d="M 0,500 H 500 V 0 H 0 Z" /></clipPath><clipPath
       id="clipPath86"
       clipPathUnits="userSpaceOnUse"><path
         id="path84"
         d="M 91.3358,404.605 H 414.625 V 52.8588 H 91.3358 Z" /></clipPath><clipPath
       id="clipPath184"
       clipPathUnits="userSpaceOnUse"><path
         id="path182"
         d="m 230.027,220.377 2.241,-19.925 c 3.078,-1.408 17.186,-0.485 17.186,-0.485 v 0 l 0.866,7.124 c 0.685,-0.329 1.432,-0.52 2.213,-0.52 v 0 h 0.04 c 1.378,0.01 2.668,0.556 3.635,1.537 v 0 c 0.966,0.981 1.493,2.281 1.483,3.658 v 0 c -0.02,2.829 -2.33,5.118 -5.157,5.118 v 0 h -0.038 c -0.342,-0.003 -0.675,-0.043 -0.999,-0.109 v 0 l 0.444,3.652 z m 20.586,-10.87 0.589,4.835 c 0.396,0.204 0.836,0.33 1.31,0.333 v 0 h 0.023 c 1.615,0 2.936,-1.308 2.948,-2.927 v 0 c 0.006,-0.786 -0.295,-1.529 -0.848,-2.09 v 0 c -0.552,-0.561 -1.29,-0.873 -2.079,-0.878 v 0 h -0.023 c -0.714,0 -1.383,0.264 -1.92,0.727" /></clipPath><clipPath
       id="clipPath192"
       clipPathUnits="userSpaceOnUse"><path
         id="path190"
         d="m 228.762,210.096 h 26.902 v -13.599 h -26.902 z" /></clipPath><clipPath
       id="clipPath208"
       clipPathUnits="userSpaceOnUse"><path
         id="path206"
         d="m 226.676,224.839 h 27.616 v -11.198 h -27.616 z" /></clipPath><clipPath
       id="clipPath224"
       clipPathUnits="userSpaceOnUse"><path
         id="path222"
         d="M 0,500 H 500 V 0 H 0 Z" /></clipPath><clipPath
       id="clipPath256"
       clipPathUnits="userSpaceOnUse"><path
         id="path254"
         d="m 317.326,283.114 c -2.024,0 -3.745,-1.753 -4.056,-4.128 v 0 l -2.34,-17.911 c -0.386,-2.956 1.538,-5.624 4.056,-5.624 v 0 h 34.052 c 2.023,0 3.745,1.753 4.055,4.128 v 0 l 2.339,17.912 c 0.387,2.954 -1.538,5.623 -4.056,5.623 v 0 z" /></clipPath><clipPath
       id="clipPath272"
       clipPathUnits="userSpaceOnUse"><path
         id="path270"
         d="M 0,500 H 500 V 0 H 0 Z" /></clipPath><clipPath
       id="clipPath416"
       clipPathUnits="userSpaceOnUse"><path
         id="path414"
         d="M 404.159,95.137 394.195,53.36 h 45.971 l -8.953,41.483 c -0.279,1.293 -1.416,2.222 -2.741,2.236 v 0 l -21.524,0.235 c -0.01,0 -0.02,0 -0.031,0 v 0 c -1.31,0.001 -2.452,-0.899 -2.758,-2.177" /></clipPath><clipPath
       id="clipPath424"
       clipPathUnits="userSpaceOnUse"><path
         id="path422"
         d="m 395.833,100.707 h 41.8 V 72.5525 h -41.8 z" /></clipPath><clipPath
       id="clipPath440"
       clipPathUnits="userSpaceOnUse"><path
         id="path438"
         d="m 391.762,71.6905 h 52.071 V 50.1938 h -52.071 z" /></clipPath><clipPath
       id="clipPath456"
       clipPathUnits="userSpaceOnUse"><path
         id="path454"
         d="M 0,500 H 500 V 0 H 0 Z" /></clipPath><clipPath
       id="clipPath512"
       clipPathUnits="userSpaceOnUse"><path
         id="path510"
         d="m 358.961,128.804 h 6.252 v -8.352 h -6.252 z" /></clipPath><clipPath
       id="clipPath528"
       clipPathUnits="userSpaceOnUse"><path
         id="path526"
         d="m 382.112,128.804 h 6.252 v -8.352 h -6.252 z" /></clipPath><clipPath
       id="clipPath584"
       clipPathUnits="userSpaceOnUse"><path
         id="path582"
         d="m 337.789,382.741 c -1.154,0 -2.089,-0.934 -2.089,-2.088 v 0 -17.539 c 0,-1.152 0.935,-2.087 2.089,-2.087 v 0 h 28.395 c 1.154,0 2.088,0.935 2.088,2.087 v 0 17.539 c 0,1.154 -0.934,2.088 -2.088,2.088 v 0 z" /></clipPath><clipPath
       id="clipPath596"
       clipPathUnits="userSpaceOnUse"><path
         id="path594"
         d="M 0,500 H 500 V 0 H 0 Z" /></clipPath></defs><g
     transform="matrix(1.3333333,0,0,-1.3333333,0,666.66667)"
     id="g10"><path
       id="path12"
       style="fill:#ffffff;fill-opacity:1;fill-rule:nonzero;stroke:none"
       d="M 0,0 H 500 V 500 H 0 Z" /><path
       id="path14"
       style="fill:#ffffff;fill-opacity:1;fill-rule:nonzero;stroke:none"
       d="M 0,0 H 500 V 500 H 0 Z" /><g
       id="g16"><g
         clip-path="url(#clipPath22)"
         id="g18"><g
           transform="translate(250.0001,431.5583)"
           id="g24"><path
             id="path26"
             style="fill:#223663;fill-opacity:1;fill-rule:nonzero;stroke:none"
             d="m 0,0 c -0.425,0 -0.77,0.345 -0.77,0.77 v 66.699 c 0,0.425 0.345,0.769 0.77,0.769 0.425,0 0.77,-0.344 0.77,-0.769 V 0.77 C 0.77,0.345 0.425,0 0,0" /></g><g
           transform="translate(289.2194,404.8683)"
           id="g28"><path
             id="path30"
             style="fill:#ffb244;fill-opacity:1;fill-rule:nonzero;stroke:none"
             d="M 0,0 C 0,21.66 -17.56,39.219 -39.219,39.219 -60.879,39.219 -78.439,21.66 -78.439,0 Z" /></g></g></g><g
       id="g32"><g
         clip-path="url(#clipPath38)"
         id="g34"><g
           id="g40"><g
             id="g42" /><g
             id="g54"><g
               style="opacity:0.47000104"
               id="g52"
               clip-path="url(#clipPath46)"><g
                 id="g50"
                 transform="translate(278.3571,441.3508)"><path
                   id="path48"
                   style="fill:#ffffff;fill-opacity:1;fill-rule:nonzero;stroke:none"
                   d="m 0,0 c -6.323,-4.961 -15.178,-6.5 -22.804,-3.961 -1.959,0.652 -3.874,1.561 -5.934,1.696 -4.853,0.318 -8.978,-3.647 -13.79,-4.355 -5.531,-0.815 -10.66,2.737 -15.123,6.106 0,0 15.197,14.483 30.546,11.489 C -11.757,7.979 0,0 0,0" /></g></g></g></g><g
           id="g56"><g
             id="g58" /><g
             id="g70"><g
               style="opacity:0.52000397"
               id="g68"
               clip-path="url(#clipPath62)"><g
                 id="g66"
                 transform="translate(205.1144,418.2946)"><path
                   id="path64"
                   style="fill:#ed9837;fill-opacity:1;fill-rule:nonzero;stroke:none"
                   d="m 0,0 c 8.753,3.921 19.048,4.262 28.042,0.929 4.945,-1.833 9.702,-4.764 14.977,-4.75 4.715,0.013 9.079,2.399 13.711,3.287 4.047,0.777 8.312,0.376 12.145,-1.139 1.651,-0.653 3.241,-1.513 4.984,-1.846 2.761,-0.527 5.58,0.316 8.389,0.439 4.493,0.198 9.038,-1.555 12.235,-4.718 l -1.222,-16.696 -94.026,5.589 z" /></g></g></g></g></g></g><g
       id="g72"><g
         clip-path="url(#clipPath78)"
         id="g74"><g
           id="g80"><g
             id="g82" /><g
             id="g94"><g
               style="opacity:0.14999402"
               id="g92"
               clip-path="url(#clipPath86)"><g
                 id="g90"
                 transform="translate(210.4274,404.6052)"><path
                   id="path88"
                   style="fill:#ffcf00;fill-opacity:1;fill-rule:nonzero;stroke:none"
                   d="M 0,0 -119.092,-351.746 H 204.197 L 78.438,0 Z" /></g></g></g></g><g
           transform="translate(178.2174,145.9391)"
           id="g96"><path
             id="path98"
             style="fill:#00b3a2;fill-opacity:1;fill-rule:nonzero;stroke:none"
             d="m 0,0 c 3.215,-0.012 5.958,2.336 6.427,5.518 1.619,10.991 1.035,50.255 -8.113,55.417 -17.111,9.652 -29.396,2.631 -39.926,10.09 -10.53,7.459 -6.734,42.311 -24.57,46.508 -29.835,7.02 -57.214,-2.501 -57.214,-2.501 l -1.816,-44.899 22.614,-69.746 z" /></g><g
           transform="translate(127.526,238.1081)"
           id="g100"><path
             id="path102"
             style="fill:#223663;fill-opacity:1;fill-rule:nonzero;stroke:none"
             d="m 0,0 c 0,0 -4.362,-46.669 6.93,-50.36 12.012,-3.927 47.477,3.055 50.381,-14.785 0,0 3.3,23.656 -3.717,30.956 -13.417,13.956 -36.823,7.086 -42.216,12.065 C 5.985,-17.146 0,0 0,0" /></g><g
           transform="translate(180.0978,54.446)"
           id="g104"><path
             id="path106"
             style="fill:#223663;fill-opacity:1;fill-rule:nonzero;stroke:none"
             d="m 0,0 -57.971,31.751 v 52.754 h 39.409 c 4.647,0 8.415,3.767 8.415,8.415 h -93.893 c 0,-4.648 3.768,-8.415 8.415,-8.415 h 32.828 V 31.365 L -120.063,0 l 9.85,0.208 47.416,14.881 V 0.099 h 4.826 V 15.31 L -9.85,0.208 Z" /></g><g
           transform="translate(240.5148,79.9948)"
           id="g108"><path
             id="path110"
             style="fill:#ffcfab;fill-opacity:1;fill-rule:nonzero;stroke:none"
             d="M 0,0 -8.879,13.848 -21.183,5.583 -10.64,-9.788 Z" /></g><g
           transform="translate(237.0016,86.3415)"
           id="g112"><path
             id="path114"
             style="fill:#ffffff;fill-opacity:1;fill-rule:nonzero;stroke:none"
             d="m 0,0 -12.489,-8.38 4.141,-6.145 11.575,8.896 z" /></g><g
           transform="translate(267.1012,85.1999)"
           id="g116"><path
             id="path118"
             style="fill:#009787;fill-opacity:1;fill-rule:nonzero;stroke:none"
             d="m 0,0 c -8.32,-3.01 -21.556,-8.065 -21.556,-8.065 l -4.249,4.961 -14.076,-9.727 c 0,0 7.591,-14.091 8.415,-15.356 0.824,-1.264 2.63,-4.501 4.838,-3.162 5.629,3.412 37.619,25.088 42.563,30.022 1.246,1.244 -0.998,4.253 -4.921,4.526 C 7.391,3.452 2.305,0.833 0,0" /></g><g
           transform="translate(245.3356,76.1266)"
           id="g120"><path
             id="path122"
             style="fill:#223663;fill-opacity:1;fill-rule:nonzero;stroke:none"
             d="M 0,0 C 0.058,-2.303 0.351,-5.766 0.693,-6.383 1.056,-7.034 1.42,-6.979 1.576,-6.957 1.961,-6.9 2.324,-6.743 2.37,-5.982 2.463,-4.403 1.125,-1.708 0,0 m 1.452,-8.15 c -0.732,0 -1.361,0.415 -1.794,1.192 -0.679,1.225 -0.935,7.354 -0.82,8.723 0.019,0.23 0.171,0.428 0.389,0.506 C -0.557,2.349 -0.312,2.295 -0.15,2.13 1.057,0.904 3.706,-3.459 3.551,-6.053 3.481,-7.23 2.84,-7.968 1.748,-8.129 1.647,-8.144 1.549,-8.15 1.452,-8.15" /></g><g
           transform="translate(246.1979,77.0231)"
           id="g124"><path
             id="path126"
             style="fill:#223663;fill-opacity:1;fill-rule:nonzero;stroke:none"
             d="m 0,0 c 1.392,-1.836 3.653,-4.476 4.291,-4.776 0.675,-0.318 0.939,-0.061 1.051,0.05 0.279,0.271 0.482,0.611 0.075,1.254 C 4.571,-2.136 1.911,-0.729 0,0 m 4.862,-6.111 c -0.311,0 -0.669,0.073 -1.075,0.263 -1.268,0.598 -5.055,5.423 -5.761,6.601 -0.119,0.198 -0.111,0.448 0.019,0.639 0.131,0.19 0.36,0.282 0.589,0.25 C 0.329,1.351 5.028,-0.643 6.417,-2.839 7.048,-3.836 6.959,-4.808 6.166,-5.576 5.925,-5.811 5.491,-6.111 4.862,-6.111" /></g><g
           transform="translate(237.3229,54.5573)"
           id="g128"><path
             id="path130"
             style="fill:#223663;fill-opacity:1;fill-rule:nonzero;stroke:none"
             d="m 0,0 c -0.188,0 -0.373,0.089 -0.488,0.256 -0.185,0.268 -0.118,0.638 0.151,0.823 l 45.003,31.048 c 0.271,0.187 0.638,0.117 0.823,-0.151 0.186,-0.269 0.118,-0.638 -0.151,-0.824 L 0.336,0.104 C 0.233,0.033 0.116,0 0,0" /></g><g
           transform="translate(258.9996,78.3034)"
           id="g132"><path
             id="path134"
             style="fill:#223663;fill-opacity:1;fill-rule:nonzero;stroke:none"
             d="M 0,0 C -0.323,0 -0.587,0.259 -0.592,0.583 -0.638,3.748 0.074,5.044 0.155,5.182 0.322,5.463 0.684,5.556 0.967,5.39 1.246,5.224 1.34,4.864 1.178,4.584 1.162,4.556 0.551,3.411 0.592,0.601 0.597,0.273 0.336,0.005 0.009,0 Z" /></g><g
           transform="translate(255.5299,76.9177)"
           id="g136"><path
             id="path138"
             style="fill:#223663;fill-opacity:1;fill-rule:nonzero;stroke:none"
             d="M 0,0 C -0.323,0 -0.587,0.259 -0.592,0.583 -0.638,3.75 0.074,5.045 0.156,5.182 0.322,5.463 0.684,5.559 0.967,5.389 1.246,5.224 1.34,4.864 1.178,4.583 1.16,4.552 0.551,3.407 0.592,0.601 0.597,0.273 0.336,0.005 0.009,0 Z" /></g><g
           transform="translate(252.3131,75.8161)"
           id="g140"><path
             id="path142"
             style="fill:#223663;fill-opacity:1;fill-rule:nonzero;stroke:none"
             d="M 0,0 C -0.323,0 -0.587,0.259 -0.592,0.583 -0.639,3.748 0.073,5.044 0.154,5.182 0.321,5.463 0.683,5.556 0.966,5.39 1.245,5.224 1.339,4.864 1.177,4.584 1.164,4.56 0.55,3.416 0.592,0.601 0.597,0.273 0.336,0.005 0.009,0 Z" /></g><g
           transform="translate(138.0377,209.1657)"
           id="g144"><path
             id="path146"
             style="fill:#9cccf4;fill-opacity:1;fill-rule:nonzero;stroke:none"
             d="m 0,0 c 19.604,-18.078 40.974,-29.605 59.442,-52.037 18.468,-22.432 26.431,-42.638 39.162,-65.015 -5.501,-4.089 -16.254,-12.917 -20.428,-11.81 -2.654,0.704 -33.03,38.308 -51.62,57.666 -9.939,10.349 -38.193,13.747 -54.011,21.463 -12.99,6.337 -20.132,17.996 -15.116,54.647" /></g><g
           transform="translate(240.9415,192.5397)"
           id="g148"><path
             id="path150"
             style="fill:#223663;fill-opacity:1;fill-rule:nonzero;stroke:none"
             d="m 0,0 -8.527,2.592 -22.54,-141.516 6.297,-0.236 z" /></g><path
           id="path152"
           style="fill:#008f80;fill-opacity:1;fill-rule:nonzero;stroke:none"
           d="m 245.249,186.919 h -17.93 v 7.173 h 17.93 z" /><g
           transform="translate(389.1725,192.5397)"
           id="g154"><path
             id="path156"
             style="fill:#223663;fill-opacity:1;fill-rule:nonzero;stroke:none"
             d="M 0,0 8.527,2.592 31.066,-138.924 24.77,-139.16 Z" /></g><path
           id="path158"
           style="fill:#008f80;fill-opacity:1;fill-rule:nonzero;stroke:none"
           d="m 384.865,186.919 h 17.93 v 7.173 h -17.93 z" /><path
           id="path160"
           style="fill:#00b3a2;fill-opacity:1;fill-rule:nonzero;stroke:none"
           d="M 405.282,190.747 H 224.283 v 9.569 h 180.999 z" /><g
           transform="translate(240.005,217.2653)"
           id="g162"><path
             id="path164"
             style="fill:#ffffff;fill-opacity:1;fill-rule:nonzero;stroke:none"
             d="m 0,0 c 0,0 6.277,9.437 4.534,16.993 -0.916,3.974 -4.1,6.739 -6.926,9.429 -3.543,3.373 -4.596,5.293 -4.751,10.334 -0.066,2.152 -0.233,4.383 -1.273,6.268 -1.039,1.885 -3.187,3.325 -5.293,2.883 -1.91,-0.4 -3.266,-2.239 -3.632,-4.155 -0.366,-1.915 0.08,-3.891 0.667,-5.751 1.258,-3.986 3.216,-7.822 6.01,-10.955 2.527,-2.833 6.824,-4.866 8.577,-8.277 C 1.916,8.973 0,0 0,0" /></g><g
           transform="translate(228.6823,235.3102)"
           id="g166"><path
             id="path168"
             style="fill:#ffffff;fill-opacity:1;fill-rule:nonzero;stroke:none"
             d="M 0,0 C 1.57,0.641 3.478,-0.376 4.807,-1.43 6.136,-2.483 6.683,-4.701 5.452,-5.868 4.518,-6.754 3.002,-6.666 1.821,-6.154 0.456,-5.562 -0.739,-4.383 -0.974,-2.913 -1.208,-1.442 -0.711,-0.29 0,0" /></g><g
           transform="translate(238.7594,251.7009)"
           id="g170"><path
             id="path172"
             style="fill:#ffffff;fill-opacity:1;fill-rule:nonzero;stroke:none"
             d="M 0,0 C 1.612,0.845 4.766,-0.167 4.471,-2.346 4.358,-3.186 3.694,-3.902 2.889,-4.165 2.083,-4.429 1.17,-4.267 0.45,-3.819 -0.211,-3.408 -0.733,-2.743 -0.872,-1.977 -1.051,-0.985 -0.651,-0.341 0,0" /></g><g
           transform="translate(254.6354,209.6579)"
           id="g174"><path
             id="path176"
             style="fill:#ffb244;fill-opacity:1;fill-rule:nonzero;stroke:none"
             d="m 0,0 c -0.553,-0.561 -1.291,-0.873 -2.079,-0.878 h -0.024 c -0.713,0 -1.383,0.264 -1.919,0.728 l 0.588,4.835 c 0.396,0.203 0.836,0.329 1.311,0.333 h 0.022 C -0.485,5.018 0.836,3.71 0.848,2.091 0.854,1.304 0.553,0.562 0,0 M -2.102,7.226 H -2.14 C -2.481,7.224 -2.814,7.184 -3.139,7.117 l 0.445,3.653 -21.914,-0.051 2.24,-19.925 c 3.079,-1.408 17.186,-0.484 17.186,-0.484 l 0.866,7.123 c 0.686,-0.329 1.432,-0.52 2.213,-0.52 h 0.04 c 1.378,0.01 2.668,0.556 3.636,1.537 0.966,0.981 1.493,2.28 1.483,3.657 -0.021,2.83 -2.33,5.119 -5.158,5.119" /></g></g></g><g
       id="g178"><g
         clip-path="url(#clipPath184)"
         id="g180"><g
           id="g186"><g
             id="g188" /><g
             id="g200"><g
               style="opacity:0.52000397"
               id="g198"
               clip-path="url(#clipPath192)"><g
                 id="g196"
                 transform="translate(255.6647,209.6091)"><path
                   id="path194"
                   style="fill:#ed9837;fill-opacity:1;fill-rule:nonzero;stroke:none"
                   d="m 0,0 c -2.327,0.964 -4.989,0.336 -7.364,-0.5 -2.375,-0.836 -4.781,-1.887 -7.295,-1.733 -1.517,0.091 -2.991,0.623 -4.512,0.623 -2.895,-10e-4 -5.405,-1.889 -7.673,-3.688 -0.203,-0.161 0.208,-0.453 -0.051,-0.443 l 0.456,-7.37 25.679,2.868 z" /></g></g></g></g><g
           id="g202"><g
             id="g204" /><g
             id="g216"><g
               style="opacity:0.47000104"
               id="g214"
               clip-path="url(#clipPath208)"><g
                 id="g212"
                 transform="translate(226.6764,216.6716)"><path
                   id="path210"
                   style="fill:#ffffff;fill-opacity:1;fill-rule:nonzero;stroke:none"
                   d="m 0,0 c 1.914,-0.43 3.644,-1.43 5.461,-2.167 1.818,-0.737 3.881,-1.211 5.727,-0.545 1.927,0.695 3.37,2.547 5.397,2.85 0.851,0.127 1.714,-0.039 2.571,-0.111 3.025,-0.251 6.135,0.738 8.459,2.69 L 26.727,8.167 0.647,7.516 Z" /></g></g></g></g></g></g><g
       id="g218"><g
         clip-path="url(#clipPath224)"
         id="g220"><g
           transform="translate(345.3199,220.5417)"
           id="g226"><path
             id="path228"
             style="fill:#223663;fill-opacity:1;fill-rule:nonzero;stroke:none"
             d="m 0,0 5.539,-20.176 h -51.824 l 18.989,5.143 -5.143,14.637 z" /></g><g
           transform="translate(277.6852,217.6823)"
           id="g230"><path
             id="path232"
             style="fill:#00b3a2;fill-opacity:1;fill-rule:nonzero;stroke:none"
             d="m 0,0 h 109.062 c 6.481,0 11.996,5.612 12.989,13.221 l 7.494,57.368 c 1.236,9.465 -4.926,18.009 -12.989,18.009 H 7.494 c -6.481,0 -11.996,-5.612 -12.989,-13.22 L -12.989,18.01 C -14.226,8.545 -8.063,0 0,0" /></g><g
           transform="translate(264.6959,235.6921)"
           id="g234"><path
             id="path236"
             style="fill:#223663;fill-opacity:1;fill-rule:nonzero;stroke:none"
             d="m 0,0 c -1.236,-9.465 4.926,-18.01 12.989,-18.01 h 109.062 c 6.481,0 11.996,5.613 12.989,13.221 l 0.594,4.2 z" /></g><g
           transform="translate(303.1354,246.4431)"
           id="g238"><path
             id="path240"
             style="fill:#ffffff;fill-opacity:1;fill-rule:nonzero;stroke:none"
             d="m 0,0 h 56.229 c 3.341,0 6.184,2.894 6.697,6.816 l 3.863,29.578 c 0.638,4.879 -2.54,9.284 -6.697,9.284 H 3.864 c -3.342,0 -6.184,-2.893 -6.697,-6.816 L -6.696,9.285 C -7.334,4.405 -4.156,0 0,0" /></g><g
           transform="translate(314.986,255.4514)"
           id="g242"><path
             id="path244"
             style="fill:#e9e9e9;fill-opacity:1;fill-rule:nonzero;stroke:none"
             d="m 0,0 h 34.052 c 2.023,0 3.745,1.752 4.055,4.128 l 2.339,17.911 c 0.387,2.955 -1.538,5.623 -4.055,5.623 H 2.34 c -2.024,0 -3.745,-1.752 -4.056,-4.128 L -4.056,5.623 C -4.441,2.667 -2.518,0 0,0" /></g><g
           transform="translate(355.3951,277.9802)"
           id="g246"><path
             id="path248"
             style="fill:#00b3a2;fill-opacity:1;fill-rule:nonzero;stroke:none"
             d="m 0,0 c 0.386,2.955 -1.501,5.133 -4.019,5.133 h -34.05 c -2.024,0 -3.669,-1.45 -4.215,-4.997 z" /></g></g></g><g
       id="g250"><g
         clip-path="url(#clipPath256)"
         id="g252"><g
           transform="translate(331.2028,270.5051)"
           id="g258"><path
             id="path260"
             style="fill:#ffb244;fill-opacity:1;fill-rule:nonzero;stroke:none"
             d="M 0,0 C 2.117,1.856 5.339,1.645 7.195,-0.473 9.051,-2.591 8.839,-5.812 6.722,-7.668 4.604,-9.524 1.383,-9.313 -0.474,-7.195 -2.33,-5.077 -2.118,-1.856 0,0" /></g><g
           transform="translate(350.9703,254.1535)"
           id="g262"><path
             id="path264"
             style="fill:#223663;fill-opacity:1;fill-rule:nonzero;stroke:none"
             d="m 0,0 c -1.073,5.104 -6.264,17.148 -7.235,18.276 -3.495,-3.412 -5.886,-5.87 -9.21,-9.273 -1.776,2.116 -8.402,12.087 -8.608,12.052 C -25.312,21.01 -37.923,1.462 -38.345,0.208 Z" /></g></g></g><g
       id="g266"><g
         clip-path="url(#clipPath272)"
         id="g268"><g
           transform="translate(307.5739,289.718)"
           id="g274"><path
             id="path276"
             style="fill:#ffb244;fill-opacity:1;fill-rule:nonzero;stroke:none"
             d="m 0,0 c 0,-0.392 -0.317,-0.709 -0.71,-0.709 -0.392,0 -0.709,0.317 -0.709,0.709 0,0.392 0.317,0.71 0.709,0.71 C -0.317,0.71 0,0.392 0,0" /></g><g
           transform="translate(310.2115,289.718)"
           id="g278"><path
             id="path280"
             style="fill:#00b3a2;fill-opacity:1;fill-rule:nonzero;stroke:none"
             d="m 0,0 c 0,-0.392 -0.317,-0.709 -0.71,-0.709 -0.392,0 -0.71,0.317 -0.71,0.709 0,0.392 0.318,0.71 0.71,0.71 C -0.317,0.71 0,0.392 0,0" /></g><g
           transform="translate(317.8834,281.2907)"
           id="g282"><path
             id="path284"
             style="fill:#ffb244;fill-opacity:1;fill-rule:nonzero;stroke:none"
             d="m 0,0 c 0,-0.392 -0.317,-0.71 -0.71,-0.71 -0.392,0 -0.71,0.318 -0.71,0.71 0,0.392 0.318,0.709 0.71,0.709 C -0.317,0.709 0,0.392 0,0" /></g><g
           transform="translate(320.5211,281.2907)"
           id="g286"><path
             id="path288"
             style="fill:#ffffff;fill-opacity:1;fill-rule:nonzero;stroke:none"
             d="m 0,0 c 0,-0.392 -0.317,-0.71 -0.71,-0.71 -0.392,0 -0.71,0.318 -0.71,0.71 0,0.392 0.318,0.709 0.71,0.709 C -0.317,0.709 0,0.392 0,0" /></g><g
           transform="translate(335.3688,224.8522)"
           id="g290"><path
             id="path292"
             style="fill:#00b3a2;fill-opacity:1;fill-rule:nonzero;stroke:none"
             d="m 0,0 h -12.912 c -0.829,0 -1.501,0.672 -1.501,1.502 0,0.829 0.672,1.501 1.501,1.501 H 0 C 0.83,3.003 1.502,2.331 1.502,1.502 1.502,0.672 0.83,0 0,0" /></g><g
           transform="translate(55.3385,261.278)"
           id="g294"><path
             id="path296"
             style="fill:#223663;fill-opacity:1;fill-rule:nonzero;stroke:none"
             d="m 0,0 c 0,0 -2.254,-40.364 14.429,-44.313 16.683,-3.949 41.03,0.438 47.794,-14.917 6.763,-15.357 5.861,-56.161 5.861,-56.161 l -46.892,0.439 c 0,0 -32.106,-1.838 -32.464,34.223 C -11.543,-53.472 -18.036,-10.969 0,0" /></g><g
           transform="translate(330.525,419.2014)"
           id="g298"><path
             id="path300"
             style="fill:#223663;fill-opacity:1;fill-rule:nonzero;stroke:none"
             d="m 0,0 c -0.338,0 -0.611,0.274 -0.611,0.612 v 6.377 c 0,0.338 0.273,0.612 0.611,0.612 0.338,0 0.611,-0.274 0.611,-0.612 V 0.612 C 0.611,0.274 0.338,0 0,0" /></g><g
           transform="translate(333.7135,422.3898)"
           id="g302"><path
             id="path304"
             style="fill:#223663;fill-opacity:1;fill-rule:nonzero;stroke:none"
             d="m 0,0 h -6.377 c -0.338,0 -0.611,0.274 -0.611,0.612 0,0.338 0.273,0.612 0.611,0.612 H 0 C 0.338,1.224 0.611,0.95 0.611,0.612 0.611,0.274 0.338,0 0,0" /></g><g
           transform="translate(150.9874,386.2365)"
           id="g306"><path
             id="path308"
             style="fill:#223663;fill-opacity:1;fill-rule:nonzero;stroke:none"
             d="m 0,0 c -0.588,0 -1.067,-0.479 -1.067,-1.067 0,-0.588 0.479,-1.067 1.067,-1.067 0.588,0 1.067,0.479 1.067,1.067 C 1.067,-0.479 0.588,0 0,0 m 0,-3.357 c -1.263,0 -2.291,1.027 -2.291,2.29 0,1.263 1.028,2.291 2.291,2.291 1.263,0 2.291,-1.028 2.291,-2.291 0,-1.263 -1.028,-2.29 -2.291,-2.29" /></g><g
           transform="translate(245.2394,376.0051)"
           id="g310"><path
             id="path312"
             style="fill:#223663;fill-opacity:1;fill-rule:nonzero;stroke:none"
             d="m 0,0 c -0.338,0 -0.612,0.274 -0.612,0.612 v 6.377 c 0,0.338 0.274,0.612 0.612,0.612 0.338,0 0.612,-0.274 0.612,-0.612 V 0.612 C 0.612,0.274 0.338,0 0,0" /></g><g
           transform="translate(248.4279,379.1935)"
           id="g314"><path
             id="path316"
             style="fill:#223663;fill-opacity:1;fill-rule:nonzero;stroke:none"
             d="m 0,0 h -6.377 c -0.338,0 -0.612,0.274 -0.612,0.612 0,0.338 0.274,0.612 0.612,0.612 H 0 C 0.338,1.224 0.612,0.95 0.612,0.612 0.612,0.274 0.338,0 0,0" /></g><g
           transform="translate(258.3961,326.5993)"
           id="g318"><path
             id="path320"
             style="fill:#223663;fill-opacity:1;fill-rule:nonzero;stroke:none"
             d="m 0,0 c -0.589,0 -1.067,-0.478 -1.067,-1.066 0,-0.589 0.478,-1.067 1.067,-1.067 0.589,0 1.067,0.478 1.067,1.067 C 1.067,-0.478 0.589,0 0,0 m 0,-3.357 c -1.263,0 -2.29,1.028 -2.29,2.291 0,1.262 1.027,2.29 2.29,2.29 1.263,0 2.29,-1.028 2.29,-2.29 0,-1.263 -1.027,-2.291 -2.29,-2.291" /></g><g
           transform="translate(207.027,315.6408)"
           id="g322"><path
             id="path324"
             style="fill:#223663;fill-opacity:1;fill-rule:nonzero;stroke:none"
             d="m 0,0 c -0.338,0 -0.612,0.274 -0.612,0.612 v 6.377 c 0,0.338 0.274,0.612 0.612,0.612 0.338,0 0.612,-0.274 0.612,-0.612 V 0.612 C 0.612,0.274 0.338,0 0,0" /></g><g
           transform="translate(210.2155,318.8293)"
           id="g326"><path
             id="path328"
             style="fill:#223663;fill-opacity:1;fill-rule:nonzero;stroke:none"
             d="m 0,0 h -6.377 c -0.338,0 -0.612,0.274 -0.612,0.612 0,0.338 0.274,0.612 0.612,0.612 H 0 C 0.338,1.224 0.612,0.95 0.612,0.612 0.612,0.274 0.338,0 0,0" /></g><g
           transform="translate(194.1618,248.9323)"
           id="g330"><path
             id="path332"
             style="fill:#223663;fill-opacity:1;fill-rule:nonzero;stroke:none"
             d="m 0,0 c -0.588,0 -1.067,-0.479 -1.067,-1.067 0,-0.589 0.479,-1.068 1.067,-1.068 0.588,0 1.066,0.479 1.066,1.068 C 1.066,-0.479 0.588,0 0,0 m 0,-3.357 c -1.263,0 -2.291,1.027 -2.291,2.29 0,1.262 1.028,2.29 2.291,2.29 1.263,0 2.29,-1.028 2.29,-2.29 0,-1.263 -1.027,-2.29 -2.29,-2.29" /></g><g
           transform="translate(175.5651,427.7473)"
           id="g334"><path
             id="path336"
             style="fill:#223663;fill-opacity:1;fill-rule:nonzero;stroke:none"
             d="m 0,0 c -0.338,0 -0.612,0.274 -0.612,0.612 v 6.377 c 0,0.338 0.274,0.612 0.612,0.612 0.338,0 0.612,-0.274 0.612,-0.612 V 0.612 C 0.612,0.274 0.338,0 0,0" /></g><g
           transform="translate(178.7536,430.9357)"
           id="g338"><path
             id="path340"
             style="fill:#223663;fill-opacity:1;fill-rule:nonzero;stroke:none"
             d="m 0,0 h -6.377 c -0.338,0 -0.612,0.274 -0.612,0.612 0,0.338 0.274,0.612 0.612,0.612 H 0 C 0.338,1.224 0.612,0.95 0.612,0.612 0.612,0.274 0.338,0 0,0" /></g><g
           transform="translate(405.1715,380.3181)"
           id="g342"><path
             id="path344"
             style="fill:#223663;fill-opacity:1;fill-rule:nonzero;stroke:none"
             d="m 0,0 c -0.589,0 -1.067,-0.478 -1.067,-1.066 0,-0.589 0.478,-1.067 1.067,-1.067 0.588,0 1.066,0.478 1.066,1.067 C 1.066,-0.478 0.588,0 0,0 m 0,-3.357 c -1.263,0 -2.29,1.028 -2.29,2.291 0,1.262 1.027,2.29 2.29,2.29 1.263,0 2.289,-1.028 2.289,-2.29 0,-1.263 -1.026,-2.291 -2.289,-2.291" /></g><g
           transform="translate(213.4015,91.8307)"
           id="g346"><path
             id="path348"
             style="fill:#ffcfab;fill-opacity:1;fill-rule:nonzero;stroke:none"
             d="m 0,0 1.019,16.417 -14.81,0.603 -0.577,-18.63 z" /></g><g
           transform="translate(214.3175,99.0261)"
           id="g350"><path
             id="path352"
             style="fill:#ffffff;fill-opacity:1;fill-rule:nonzero;stroke:none"
             d="m 0,0 -15.027,0.619 -0.291,-7.404 14.595,0.338 z" /></g><g
           transform="translate(237.9254,80.32)"
           id="g354"><path
             id="path356"
             style="fill:#00b3a2;fill-opacity:1;fill-rule:nonzero;stroke:none"
             d="m 0,0 c -8.49,2.488 -22.156,6.229 -22.156,6.229 l -0.495,6.515 -17.105,0.47 c 0,0 -2.201,-15.854 -2.284,-17.361 -0.083,-1.507 -0.538,-5.186 2.035,-5.411 6.557,-0.572 45.173,-1.987 52.076,-0.928 1.742,0.267 1.708,4.021 -1.294,6.559 C 8.003,-1.582 2.352,-0.689 0,0" /></g><g
           transform="translate(215.0045,85.86)"
           id="g358"><path
             id="path360"
             style="fill:#223663;fill-opacity:1;fill-rule:nonzero;stroke:none"
             d="m 0,0 c -1.314,-1.891 -3.124,-4.858 -3.211,-5.559 -0.093,-0.738 0.232,-0.91 0.371,-0.983 0.347,-0.182 0.731,-0.27 1.217,0.316 C -0.614,-5.008 -0.101,-2.042 0,0 m -2.367,-7.863 c -0.333,0 -0.678,0.091 -1.026,0.274 -0.766,0.403 -1.119,1.178 -0.993,2.179 0.175,1.389 3.59,6.485 4.491,7.52 C 0.258,2.284 0.499,2.352 0.719,2.29 0.941,2.225 1.104,2.036 1.138,1.808 1.387,0.105 0.947,-4.979 -0.711,-6.981 -1.196,-7.565 -1.763,-7.863 -2.367,-7.863" /></g><g
           transform="translate(216.2301,86.0749)"
           id="g362"><path
             id="path364"
             style="fill:#223663;fill-opacity:1;fill-rule:nonzero;stroke:none"
             d="M 0,0 C 0.039,-2.303 0.303,-5.769 0.64,-6.388 0.996,-7.042 1.361,-6.99 1.518,-6.97 1.903,-6.916 2.267,-6.762 2.319,-6.002 2.426,-4.424 1.111,-1.717 0,0 m 1.4,-8.162 c -0.74,0 -1.371,0.421 -1.8,1.208 -0.669,1.229 -0.873,7.361 -0.746,8.728 0.021,0.231 0.174,0.427 0.393,0.504 0.216,0.076 0.461,0.02 0.621,-0.146 C 1.064,0.896 3.677,-3.489 3.5,-6.082 3.42,-7.259 2.773,-7.99 1.68,-8.143 1.585,-8.156 1.492,-8.162 1.4,-8.162" /></g><g
           transform="translate(250.7975,71.5368)"
           id="g366"><path
             id="path368"
             style="fill:#223663;fill-opacity:1;fill-rule:nonzero;stroke:none"
             d="m 0,0 h -0.017 l -54.652,1.543 c -0.328,0.009 -0.585,0.281 -0.576,0.608 0.01,0.328 0.322,0.579 0.609,0.576 L 0.016,1.184 C 0.343,1.175 0.601,0.902 0.592,0.575 0.582,0.254 0.319,0 0,0" /></g><g
           transform="translate(227.6642,79.4284)"
           id="g370"><path
             id="path372"
             style="fill:#223663;fill-opacity:1;fill-rule:nonzero;stroke:none"
             d="M 0,0 C -0.119,0 -0.238,0.035 -0.342,0.109 -0.609,0.298 -0.671,0.668 -0.482,0.935 1.351,3.517 2.691,4.141 2.838,4.204 3.139,4.333 3.488,4.191 3.615,3.892 3.743,3.593 3.606,3.247 3.309,3.117 3.273,3.101 2.105,2.534 0.483,0.249 0.368,0.087 0.186,0 0,0" /></g><g
           transform="translate(224.046,80.361)"
           id="g374"><path
             id="path376"
             style="fill:#223663;fill-opacity:1;fill-rule:nonzero;stroke:none"
             d="M 0,0 C -0.119,0 -0.238,0.035 -0.342,0.109 -0.609,0.298 -0.671,0.668 -0.482,0.935 1.351,3.517 2.692,4.141 2.839,4.203 3.14,4.333 3.487,4.19 3.615,3.891 3.743,3.592 3.605,3.246 3.309,3.116 3.276,3.101 2.108,2.537 0.483,0.249 0.368,0.087 0.185,0 0,0" /></g><g
           transform="translate(220.7995,81.3727)"
           id="g378"><path
             id="path380"
             style="fill:#223663;fill-opacity:1;fill-rule:nonzero;stroke:none"
             d="M 0,0 C -0.119,0 -0.238,0.035 -0.342,0.109 -0.609,0.298 -0.671,0.668 -0.482,0.935 1.351,3.517 2.691,4.141 2.838,4.204 3.139,4.334 3.486,4.191 3.615,3.892 3.743,3.593 3.606,3.247 3.309,3.117 3.274,3.101 2.106,2.535 0.483,0.249 0.368,0.087 0.185,0 0,0" /></g><g
           transform="translate(138.5587,208.1042)"
           id="g382"><path
             id="path384"
             style="fill:#8dbcec;fill-opacity:1;fill-rule:nonzero;stroke:none"
             d="m 0,0 c 1.658,-1.067 17.974,-2.695 41.014,-7.142 21.99,-4.244 34.61,-5.45 44.367,-15.818 6.173,-6.559 0.875,-60.279 -5.683,-81.499 -10.869,1.328 -11.815,0.947 -22.763,0.771 0.13,18.831 1.514,55.031 -0.489,57.58 -2.029,2.582 -1.262,1.237 -4.325,2.419 z" /></g><g
           transform="translate(196.2335,145.32)"
           id="g386"><path
             id="path388"
             style="fill:#223663;fill-opacity:1;fill-rule:nonzero;stroke:none"
             d="m 0,0 c -0.284,0 -0.515,0.229 -0.518,0.513 l -0.199,22.318 c -0.002,0.286 0.227,0.52 0.513,0.523 h 0.005 c 0.283,0 0.515,-0.229 0.517,-0.513 L 0.518,0.522 C 0.52,0.236 0.291,0.003 0.004,0 Z" /></g><g
           transform="translate(424.1305,104.1374)"
           id="g390"><path
             id="path392"
             style="fill:#6cded0;fill-opacity:1;fill-rule:nonzero;stroke:none"
             d="m 0,0 c -4.744,-1.441 -10.18,-1.194 -14.847,0.567 -18.534,6.997 -20.052,27.394 -16.958,42.984 2.075,10.451 5.733,20.672 6.559,31.268 1.266,16.235 -3.897,33.867 4.857,48.031 1.842,2.98 4.444,5.79 7.989,6.88 5.216,1.604 11.141,-1.101 14.286,-5.238 3.144,-4.137 4.025,-9.363 4.232,-14.401 C 6.583,98.775 4.096,87.46 4.951,76.164 6.049,61.683 13.605,48.054 14.509,33.56 15.118,23.779 14.777,10.353 6.174,3.247 4.381,1.766 2.27,0.69 0,0" /></g><g
           transform="translate(414.9254,96.9831)"
           id="g394"><path
             id="path396"
             style="fill:#223663;fill-opacity:1;fill-rule:nonzero;stroke:none"
             d="m 0,0 c -0.383,0 -0.695,0.309 -0.699,0.692 l -0.887,97.237 c -0.003,0.386 0.307,0.702 0.692,0.706 h 0.007 c 0.383,0 0.696,-0.309 0.7,-0.693 L 0.699,0.706 C 0.702,0.319 0.393,0.004 0.007,0 Z" /></g><g
           transform="translate(427.5924,101.9157)"
           id="g398"><path
             id="path400"
             style="fill:#00b3a2;fill-opacity:1;fill-rule:nonzero;stroke:none"
             d="m 0,0 c -4.185,-0.233 -8.544,0.896 -11.931,3.009 -13.451,8.389 -10.005,23.677 -3.914,34.618 4.083,7.336 9.4,14.225 12.501,21.885 4.753,11.735 4.605,25.623 14.965,34.526 2.181,1.874 4.939,3.489 8.068,3.673 4.606,0.271 8.798,-2.756 10.404,-6.352 1.605,-3.595 1.122,-7.598 0.134,-11.345 C 28.009,71.599 23.392,63.699 21.495,55.23 19.064,44.373 22.076,33.016 19.485,22.184 17.736,14.874 14.379,5.045 5.761,1.313 3.964,0.535 2.002,0.111 0,0" /></g><g
           transform="translate(419.903,95.5954)"
           id="g402"><path
             id="path404"
             style="fill:#223663;fill-opacity:1;fill-rule:nonzero;stroke:none"
             d="m 0,0 c -0.021,0 -0.04,0.001 -0.061,0.003 -0.384,0.033 -0.669,0.371 -0.636,0.756 1.921,22.336 23.049,83.793 23.261,84.411 0.125,0.365 0.524,0.558 0.889,0.434 0.365,-0.126 0.56,-0.525 0.434,-0.889 C 23.674,84.098 2.602,22.804 0.695,0.64 0.664,0.275 0.358,0 0,0" /></g><g
           transform="translate(404.1598,95.1374)"
           id="g406"><path
             id="path408"
             style="fill:#ffb244;fill-opacity:1;fill-rule:nonzero;stroke:none"
             d="m 0,0 -9.965,-41.777 h 45.971 l -8.952,41.482 c -0.28,1.294 -1.417,2.223 -2.742,2.237 L 2.789,2.177 C 1.466,2.191 0.308,1.288 0,0" /></g></g></g><g
       id="g410"><g
         clip-path="url(#clipPath416)"
         id="g412"><g
           id="g418"><g
             id="g420" /><g
             id="g432"><g
               style="opacity:0.47000104"
               id="g430"
               clip-path="url(#clipPath424)"><g
                 id="g428"
                 transform="translate(437.61,97.9724)"><path
                   id="path426"
                   style="fill:#ffffff;fill-opacity:1;fill-rule:nonzero;stroke:none"
                   d="m 0,0 c 0.19,-1.55 -0.843,-2.955 -1.819,-4.174 -1.455,-1.815 -2.977,-3.685 -5.061,-4.718 -1.263,-0.625 -2.663,-0.906 -3.991,-1.375 -3.925,-1.384 -7.18,-4.391 -11.217,-5.403 -3.212,-0.806 -6.738,-0.294 -9.751,-1.669 -3.91,-1.785 -6.016,-6.323 -9.938,-8.081 l 2.328,28.154 z" /></g></g></g></g><g
           id="g434"><g
             id="g436" /><g
             id="g448"><g
               style="opacity:0.52000397"
               id="g446"
               clip-path="url(#clipPath440)"><g
                 id="g444"
                 transform="translate(391.7623,53.7302)"><path
                   id="path442"
                   style="fill:#ed9837;fill-opacity:1;fill-rule:nonzero;stroke:none"
                   d="m 0,0 c 2.798,2.517 5.637,5.062 8.983,6.785 3.346,1.724 7.313,2.561 10.914,1.467 0.903,-0.273 1.781,-0.667 2.718,-0.764 2.819,-0.292 5.114,2.036 7.353,3.774 6.034,4.682 14.024,5.771 21.605,6.698 L 52.07,-3.536 0.295,-3.326 Z" /></g></g></g></g></g></g><g
       id="g450"><g
         clip-path="url(#clipPath456)"
         id="g452"><g
           transform="translate(336.1315,68.2819)"
           id="g458"><path
             id="path460"
             style="fill:#ffd292;fill-opacity:1;fill-rule:nonzero;stroke:none"
             d="m 0,0 c 0,0 -10.127,22.277 18.902,32.741 l 5.371,26.801 c 0.226,1.122 1.46,1.18 2.308,0.41 1.761,-1.596 6.296,-7.344 6.296,-7.344 l 9.177,0.301 c 0,0 4.661,5.815 6.682,7.284 0.527,0.383 2.481,0.736 2.804,-1.476 1.574,-10.767 6.267,-69.431 3.816,-71.881 -2.7,-2.701 -57.381,0 -57.381,0 z" /></g><g
           transform="translate(337.0436,73.2429)"
           id="g462"><path
             id="path464"
             style="fill:#ffd292;fill-opacity:1;fill-rule:nonzero;stroke:none"
             d="m 0,0 c 0,0 -11.463,-10.189 -5.859,-17.831 2.21,-3.014 13.463,-2.002 25.94,-1.99 19.16,0.018 41.59,0.278 41.59,0.278 0,0 3.919,6.874 -0.666,9.167 -4.585,2.293 -59.222,1.715 -59.222,1.715" /></g><g
           transform="translate(398.5485,53.1823)"
           id="g466"><path
             id="path468"
             style="fill:#223663;fill-opacity:1;fill-rule:nonzero;stroke:none"
             d="M 0,0 C -0.168,0 -0.334,0.082 -0.434,0.234 -0.59,0.474 -0.522,0.794 -0.283,0.951 0.722,1.607 1.771,3.563 1.732,5.424 1.71,6.544 1.286,8.115 -0.6,9.24 -2.894,10.609 -9.988,9.948 -18.199,9.183 -22.047,8.824 -26.407,8.418 -30.804,8.168 -44.708,7.376 -58.419,8.822 -58.556,8.837 c -0.284,0.03 -0.489,0.286 -0.459,0.57 0.031,0.283 0.272,0.494 0.571,0.459 0.135,-0.014 13.767,-1.451 27.582,-0.665 4.378,0.25 8.728,0.655 12.566,1.013 8.74,0.813 15.641,1.458 18.228,-0.085 C 2.224,8.762 2.739,6.827 2.768,5.445 2.815,3.138 1.542,0.907 0.283,0.084 0.196,0.027 0.098,0 0,0" /></g><g
           transform="translate(331.1842,54.8942)"
           id="g470"><path
             id="path472"
             style="fill:#223663;fill-opacity:1;fill-rule:nonzero;stroke:none"
             d="m 0,0 c -0.159,0 -0.316,0.073 -0.417,0.212 -2.427,3.309 -2.148,7.582 0.805,12.359 2.18,3.527 5.008,6.059 5.128,6.164 0.213,0.191 0.54,0.171 0.73,-0.043 C 6.437,18.479 6.417,18.151 6.203,17.962 6.093,17.863 -4.842,7.996 0.417,0.823 0.587,0.593 0.537,0.27 0.306,0.101 0.214,0.032 0.106,0 0,0" /></g><g
           transform="translate(372.2155,112.5329)"
           id="g474"><path
             id="path476"
             style="fill:#223663;fill-opacity:1;fill-rule:nonzero;stroke:none"
             d="M 0,0 C 0,-0.828 -0.672,-1.5 -1.5,-1.5 -2.329,-1.5 -3,-0.828 -3,0 -3,0.829 -2.329,1.5 -1.5,1.5 -0.672,1.5 0,0.829 0,0" /></g><g
           transform="translate(378.775,112.5329)"
           id="g478"><path
             id="path480"
             style="fill:#223663;fill-opacity:1;fill-rule:nonzero;stroke:none"
             d="M 0,0 C 0,-0.828 -0.672,-1.5 -1.5,-1.5 -2.329,-1.5 -3,-0.828 -3,0 -3,0.829 -2.329,1.5 -1.5,1.5 -0.672,1.5 0,0.829 0,0" /></g><g
           transform="translate(367.7145,61.3493)"
           id="g482"><path
             id="path484"
             style="fill:#223663;fill-opacity:1;fill-rule:nonzero;stroke:none"
             d="m 0,0 c -0.247,0 -0.466,0.178 -0.509,0.43 l -3.249,18.892 c -0.049,0.282 0.141,0.55 0.422,0.598 0.285,0.057 0.549,-0.14 0.598,-0.422 L 0.511,0.605 C 0.56,0.323 0.37,0.056 0.089,0.008 0.059,0.002 0.029,0 0,0" /></g><g
           transform="translate(381.5924,62.7595)"
           id="g486"><path
             id="path488"
             style="fill:#223663;fill-opacity:1;fill-rule:nonzero;stroke:none"
             d="M 0,0 C -0.029,0 -0.059,0.002 -0.089,0.008 -0.37,0.056 -0.56,0.323 -0.511,0.605 l 3.248,18.893 c 0.048,0.282 0.311,0.478 0.598,0.422 0.281,-0.048 0.471,-0.316 0.422,-0.598 L 0.509,0.43 C 0.466,0.178 0.247,0 0,0" /></g><g
           transform="translate(374.943,62.7145)"
           id="g490"><path
             id="path492"
             style="fill:#223663;fill-opacity:1;fill-rule:nonzero;stroke:none"
             d="M 0,0 C -0.277,0 -0.507,0.219 -0.518,0.497 L -1.122,16.01 c -0.011,0.286 0.212,0.526 0.497,0.538 0.282,-10e-4 0.527,-0.212 0.538,-0.497 L 0.518,0.538 C 0.528,0.252 0.306,0.012 0.021,0 Z" /></g><g
           transform="translate(374.5426,78.3679)"
           id="g494"><path
             id="path496"
             style="fill:#223663;fill-opacity:1;fill-rule:nonzero;stroke:none"
             d="M 0,0 C -1.457,0 -2.861,0.24 -3.119,0.286 -3.4,0.337 -3.587,0.606 -3.537,0.888 -3.486,1.17 -3.215,1.352 -2.936,1.306 -1.374,1.023 1.449,0.822 2.372,1.474 2.605,1.638 2.93,1.583 3.094,1.35 3.259,1.115 3.203,0.793 2.97,0.628 2.282,0.143 1.125,0 0,0" /></g><g
           transform="translate(373.5641,109.4128)"
           id="g498"><path
             id="path500"
             style="fill:#223663;fill-opacity:1;fill-rule:nonzero;stroke:none"
             d="M 0,0 0.57,-0.569 C 0.925,-0.335 1.256,-0.091 1.493,0.109 1.105,0.109 0.563,0.067 0,0 m 0.498,-1.747 c -0.134,0 -0.267,0.052 -0.366,0.151 l -1.597,1.597 c -0.137,0.138 -0.185,0.34 -0.127,0.524 0.06,0.185 0.217,0.321 0.408,0.353 C -0.31,1.023 1.798,1.324 2.479,0.982 2.709,0.867 2.854,0.651 2.864,0.404 2.874,0.194 2.897,-0.365 0.769,-1.671 0.685,-1.722 0.591,-1.747 0.498,-1.747" /></g><g
           transform="translate(367.7496,120.0602)"
           id="g502"><path
             id="path504"
             style="fill:#223663;fill-opacity:1;fill-rule:nonzero;stroke:none"
             d="M 0,0 C -0.269,0 -0.496,0.208 -0.516,0.481 -0.535,0.767 -0.321,1.014 -0.035,1.034 0.36,1.062 9.694,1.721 12.215,1.489 12.5,1.463 12.709,1.211 12.684,0.927 12.657,0.642 12.404,0.44 12.121,0.458 9.683,0.68 0.134,0.008 0.037,0.001 0.025,0 0.013,0 0,0" /></g><g
           id="g506"><g
             id="g508" /><g
             id="g520"><g
               style="opacity:0.47000104"
               id="g518"
               clip-path="url(#clipPath512)"><g
                 id="g516"
                 transform="translate(360.7985,128.7507)"><path
                   id="path514"
                   style="fill:#ffffff;fill-opacity:1;fill-rule:nonzero;stroke:none"
                   d="m 0,0 c -1.838,-0.734 -1.838,-8.268 -1.838,-8.268 0,0 5.984,-0.372 6.247,1.47 0.084,0.59 -0.786,1.871 -1.561,3.4 C 1.934,-1.598 1.018,0.407 0,0" /></g></g></g></g><g
           id="g522"><g
             id="g524" /><g
             id="g536"><g
               style="opacity:0.47000104"
               id="g534"
               clip-path="url(#clipPath528)"><g
                 id="g532"
                 transform="translate(386.527,128.7507)"><path
                   id="path530"
                   style="fill:#ffffff;fill-opacity:1;fill-rule:nonzero;stroke:none"
                   d="m 0,0 c 1.837,-0.734 1.837,-8.268 1.837,-8.268 0,0 -5.983,-0.372 -6.247,1.47 -0.084,0.59 0.787,1.871 1.562,3.4 0.914,1.8 1.83,3.805 2.848,3.398" /></g></g></g></g><g
           transform="translate(353.9821,97.153)"
           id="g538"><path
             id="path540"
             style="fill:#223663;fill-opacity:1;fill-rule:nonzero;stroke:none"
             d="m 0,0 c -0.158,0 -0.311,0.073 -0.408,0.197 -0.206,0.26 -0.261,0.33 2.137,10.486 0.066,0.278 0.342,0.454 0.623,0.384 C 2.63,11.002 2.802,10.723 2.736,10.444 1.912,6.952 0.602,1.276 0.516,0.567 0.517,0.551 0.518,0.534 0.518,0.518 0.518,0.231 0.286,0 0,0" /></g><g
           transform="translate(350.0865,98.8464)"
           id="g542"><path
             id="path544"
             style="fill:#ed9837;fill-opacity:1;fill-rule:nonzero;stroke:none"
             d="m 0,0 c 0.358,-1.444 0.402,-3.359 0.389,-4.847 -0.015,-1.488 -0.446,-3.029 -1.479,-4.099 -0.727,-0.753 -1.746,-1.28 -2.165,-2.24 -0.215,-0.491 -0.243,-1.04 -0.337,-1.568 -0.41,-2.318 -2.229,-4.328 -4.495,-4.966 -2.266,-0.638 -5.258,0.485 -6.817,2.247 0,0 2.129,6.862 6.801,10.95 C -4.161,-1.075 0,0 0,0" /></g><g
           transform="translate(350.3912,80.6081)"
           id="g546"><path
             id="path548"
             style="fill:#00b3a2;fill-opacity:1;fill-rule:nonzero;stroke:none"
             d="M 0,0 C 0.065,0 0.052,0.1 -0.013,0.1 -0.077,0.1 -0.063,0 0,0" /></g><g
           transform="translate(351.7037,84.4587)"
           id="g550"><path
             id="path552"
             style="fill:#ed9837;fill-opacity:1;fill-rule:nonzero;stroke:none"
             d="m 0,0 c -0.16,0.136 -0.334,0.234 -0.52,0.284 -1.347,0.361 -2.891,-0.203 -3.44,-1.549 -0.324,-0.795 -0.211,-1.757 0.308,-2.441 0.357,-0.47 0.88,-0.795 1.435,-0.992 1.091,-0.389 2.518,-0.193 3.092,0.813 C 1.413,-2.942 0.951,-0.811 0,0" /></g><g
           transform="translate(464.0319,52.5368)"
           id="g554"><path
             id="path556"
             style="fill:#223663;fill-opacity:1;fill-rule:nonzero;stroke:none"
             d="m 0,0 h -428.064 c -0.552,0 -1,0.447 -1,1 0,0.553 0.448,1 1,1 H 0 C 0.553,2 1,1.553 1,1 1,0.447 0.553,0 0,0" /></g><g
           transform="translate(410.7692,346.34)"
           id="g558"><path
             id="path560"
             style="fill:#ffb244;fill-opacity:1;fill-rule:nonzero;stroke:none"
             d="m 0,0 h -44.252 c -1.615,0 -2.924,-1.309 -2.924,-2.924 v -23.763 c 0,-1.615 1.309,-2.924 2.924,-2.924 h 2.889 v -4.816 c 0,-0.685 0.844,-1.008 1.301,-0.499 l 4.771,5.315 H 0 c 1.615,0 2.924,1.309 2.924,2.924 V -2.924 C 2.924,-1.309 1.615,0 0,0" /></g><g
           transform="translate(406.0367,338.4792)"
           id="g562"><path
             id="path564"
             style="fill:#ffffff;fill-opacity:1;fill-rule:nonzero;stroke:none"
             d="m 0,0 h -34.976 c -0.343,0 -0.623,0.279 -0.623,0.623 0,0.344 0.28,0.623 0.623,0.623 H 0 C 0.344,1.246 0.623,0.967 0.623,0.623 0.623,0.279 0.344,0 0,0" /></g><g
           transform="translate(406.0367,330.7604)"
           id="g566"><path
             id="path568"
             style="fill:#ffffff;fill-opacity:1;fill-rule:nonzero;stroke:none"
             d="m 0,0 h -34.976 c -0.343,0 -0.623,0.279 -0.623,0.623 0,0.344 0.28,0.623 0.623,0.623 H 0 C 0.344,1.246 0.623,0.967 0.623,0.623 0.623,0.279 0.344,0 0,0" /></g><g
           transform="translate(398.693,323.0837)"
           id="g570"><path
             id="path572"
             style="fill:#ffffff;fill-opacity:1;fill-rule:nonzero;stroke:none"
             d="m 0,0 h -27.632 c -0.344,0 -0.623,0.279 -0.623,0.623 0,0.344 0.279,0.623 0.623,0.623 H 0 C 0.344,1.246 0.623,0.967 0.623,0.623 0.623,0.279 0.344,0 0,0" /></g><g
           transform="translate(368.2721,363.1144)"
           id="g574"><path
             id="path576"
             style="fill:#ffd292;fill-opacity:1;fill-rule:nonzero;stroke:none"
             d="m 0,0 c 0,-1.153 -0.935,-2.088 -2.088,-2.088 h -28.395 c -1.154,0 -2.089,0.935 -2.089,2.088 v 17.539 c 0,1.153 0.935,2.088 2.089,2.088 H -2.088 C -0.935,19.627 0,18.692 0,17.539 Z" /></g></g></g><g
       id="g578"><g
         clip-path="url(#clipPath584)"
         id="g580"><g
           transform="translate(367.2535,359.3845)"
           id="g586"><path
             id="path588"
             style="fill:#ffffff;fill-opacity:1;fill-rule:nonzero;stroke:none"
             d="m 0,0 -11.67,12.855 11.649,11.618 -0.827,1.005 -14.743,-14.705 -14.352,15.811 -0.869,-0.959 11.668,-12.855 -11.647,-11.617 0.826,-1.005 11.694,11.663 2.638,-2.908 3.05,3.042 11.713,-12.903 z" /></g></g></g><g
       id="g590"><g
         clip-path="url(#clipPath596)"
         id="g592"><g
           transform="translate(357.775,382.4767)"
           id="g598"><path
             id="path600"
             style="fill:#00b3a2;fill-opacity:1;fill-rule:nonzero;stroke:none"
             d="m 0,0 c 0,-4.011 3.252,-7.263 7.263,-7.263 4.011,0 7.263,3.252 7.263,7.263 0,4.011 -3.252,7.263 -7.263,7.263 C 3.252,7.263 0,4.011 0,0" /></g><g
           transform="translate(360.2701,381.0715)"
           id="g602"><path
             id="path604"
             style="fill:#ffffff;fill-opacity:1;fill-rule:nonzero;stroke:none"
             d="M 0,0 H 1.015 V 2.569 H -0.006 V 3.105 C 0.183,3.126 0.415,3.185 0.689,3.281 0.965,3.378 1.212,3.489 1.43,3.615 H 1.877 V 0 H 2.803 V -0.706 H 0 Z" /></g><g
           transform="translate(365.3629,381.131)"
           id="g606"><path
             id="path608"
             style="fill:#ffffff;fill-opacity:1;fill-rule:nonzero;stroke:none"
             d="M 0,0 C 0.086,0.09 0.145,0.228 0.176,0.413 0.207,0.597 0.224,0.852 0.224,1.175 V 1.616 C 0.224,1.939 0.207,2.193 0.176,2.377 0.145,2.563 0.086,2.7 0,2.79 -0.087,2.88 -0.211,2.926 -0.375,2.926 -0.539,2.926 -0.664,2.88 -0.75,2.79 -0.836,2.7 -0.895,2.563 -0.926,2.377 -0.958,2.193 -0.974,1.939 -0.974,1.616 V 1.175 c 0,-0.323 0.016,-0.578 0.048,-0.762 C -0.895,0.228 -0.836,0.09 -0.75,0 c 0.086,-0.09 0.211,-0.135 0.375,-0.135 0.164,0 0.288,0.045 0.375,0.135 m -1.19,-0.642 c -0.217,0.132 -0.383,0.362 -0.498,0.689 -0.116,0.328 -0.173,0.777 -0.173,1.348 0,0.571 0.057,1.021 0.173,1.348 0.115,0.327 0.281,0.557 0.498,0.69 0.215,0.132 0.488,0.198 0.815,0.198 0.327,0 0.6,-0.067 0.815,-0.202 C 0.656,3.295 0.822,3.065 0.938,2.74 1.054,2.415 1.111,1.966 1.111,1.395 1.111,0.824 1.054,0.376 0.938,0.05 0.822,-0.275 0.656,-0.505 0.44,-0.639 0.225,-0.773 -0.048,-0.841 -0.375,-0.841 c -0.327,0 -0.6,0.067 -0.815,0.199" /></g><g
           transform="translate(367.0094,380.5925)"
           id="g610"><path
             id="path612"
             style="fill:#ffffff;fill-opacity:1;fill-rule:nonzero;stroke:none"
             d="M 0,0 C 0,0.239 0.053,0.455 0.158,0.646 0.263,0.837 0.392,1.003 0.545,1.146 0.698,1.289 0.898,1.451 1.146,1.631 1.36,1.795 1.529,1.932 1.653,2.041 1.777,2.15 1.881,2.27 1.966,2.4 2.07,2.563 2.123,2.748 2.123,2.954 2.123,3.088 2.073,3.207 1.975,3.31 1.876,3.413 1.734,3.464 1.55,3.464 1.134,3.464 0.926,3.265 0.926,2.866 V 2.607 H 0.069 C 0.065,2.62 0.061,2.649 0.054,2.696 c -0.006,0.046 -0.01,0.1 -0.01,0.163 0,0.437 0.146,0.765 0.438,0.983 0.291,0.219 0.661,0.327 1.106,0.327 0.39,0 0.69,-0.075 0.9,-0.226 C 2.698,3.792 2.836,3.622 2.9,3.433 2.966,3.244 2.998,3.067 2.998,2.904 2.998,2.614 2.933,2.356 2.803,2.132 2.673,1.907 2.519,1.718 2.34,1.565 2.161,1.412 1.94,1.245 1.676,1.064 1.474,0.926 1.323,0.812 1.222,0.725 1.15,0.662 1.099,0.601 1.064,0.542 h 1.959 v -0.769 l -3.023,0 z" /></g><g
           transform="translate(311.3619,314.5515)"
           id="g614"><path
             id="path616"
             style="fill:#ffd292;fill-opacity:1;fill-rule:nonzero;stroke:none"
             d="m 0,0 h -26.868 c -1.107,0 -2.004,0.897 -2.004,2.004 v 23.351 c 0,1.106 0.897,2.004 2.004,2.004 H 0 c 1.106,0 2.004,-0.898 2.004,-2.004 V 2.004 C 2.004,0.897 1.106,0 0,0" /></g><g
           transform="translate(307.4098,334.3972)"
           id="g618"><path
             id="path620"
             style="fill:#ffffff;fill-opacity:1;fill-rule:nonzero;stroke:none"
             d="m 0,0 h -15.382 c -0.393,0 -0.712,0.319 -0.712,0.712 0,0.394 0.319,0.713 0.712,0.713 L 0,1.425 C 0.393,1.425 0.712,1.106 0.712,0.712 0.712,0.319 0.393,0 0,0" /></g><g
           transform="translate(288.9723,335.1096)"
           id="g622"><path
             id="path624"
             style="fill:#ffffff;fill-opacity:1;fill-rule:nonzero;stroke:none"
             d="m 0,0 c 0,-0.578 -0.469,-1.047 -1.047,-1.047 -0.578,0 -1.047,0.469 -1.047,1.047 0,0.578 0.469,1.047 1.047,1.047 C -0.469,1.047 0,0.578 0,0" /></g><g
           transform="translate(307.4098,327.2927)"
           id="g626"><path
             id="path628"
             style="fill:#ffffff;fill-opacity:1;fill-rule:nonzero;stroke:none"
             d="m 0,0 h -15.382 c -0.393,0 -0.712,0.319 -0.712,0.712 0,0.393 0.319,0.712 0.712,0.712 H 0 C 0.393,1.424 0.712,1.105 0.712,0.712 0.712,0.319 0.393,0 0,0" /></g><g
           transform="translate(288.9723,328.0051)"
           id="g630"><path
             id="path632"
             style="fill:#ffffff;fill-opacity:1;fill-rule:nonzero;stroke:none"
             d="m 0,0 c 0,-0.579 -0.469,-1.047 -1.047,-1.047 -0.578,0 -1.047,0.468 -1.047,1.047 0,0.578 0.469,1.047 1.047,1.047 C -0.469,1.047 0,0.578 0,0" /></g><g
           transform="translate(307.4098,320.1882)"
           id="g634"><path
             id="path636"
             style="fill:#ffffff;fill-opacity:1;fill-rule:nonzero;stroke:none"
             d="m 0,0 h -15.382 c -0.393,0 -0.712,0.319 -0.712,0.712 0,0.393 0.319,0.712 0.712,0.712 H 0 C 0.393,1.424 0.712,1.105 0.712,0.712 0.712,0.319 0.393,0 0,0" /></g><g
           transform="translate(288.9723,320.9006)"
           id="g638"><path
             id="path640"
             style="fill:#ffffff;fill-opacity:1;fill-rule:nonzero;stroke:none"
             d="m 0,0 c 0,-0.579 -0.469,-1.047 -1.047,-1.047 -0.578,0 -1.047,0.468 -1.047,1.047 0,0.578 0.469,1.047 1.047,1.047 C -0.469,1.047 0,0.578 0,0" /></g><g
           transform="translate(355.0348,323.8)"
           id="g642"><path
             id="path644"
             style="fill:#6cded0;fill-opacity:1;fill-rule:nonzero;stroke:none"
             d="m 0,0 h -33.16 c -1.284,0 -2.325,1.041 -2.325,2.325 v 26.684 c 0,1.284 1.041,2.325 2.325,2.325 H 0 c 1.284,0 2.325,-1.041 2.325,-2.325 V 2.325 C 2.325,1.041 1.284,0 0,0" /></g><g
           transform="translate(357.36,346.1516)"
           id="g646"><path
             id="path648"
             style="fill:#00b3a2;fill-opacity:1;fill-rule:nonzero;stroke:none"
             d="m 0,0 v 6.657 c 0,1.284 -1.041,2.325 -2.325,2.325 h -33.16 c -1.285,0 -2.326,-1.041 -2.326,-2.325 V 0 Z" /></g><g
           transform="translate(331.6862,333.1452)"
           id="g650"><path
             id="path652"
             style="fill:#ffffff;fill-opacity:1;fill-rule:nonzero;stroke:none"
             d="m 0,0 h 2.313 v 5.864 h -2.328 v 1.221 c 0.432,0.048 0.961,0.182 1.588,0.403 0.628,0.22 1.191,0.474 1.689,0.761 h 1.02 V 0 h 2.114 v -1.609 l -6.396,0 z" /></g><g
           transform="translate(339.9137,332.2326)"
           id="g654"><path
             id="path656"
             style="fill:#ffffff;fill-opacity:1;fill-rule:nonzero;stroke:none"
             d="M 0,0 C -0.628,0.58 -0.941,1.368 -0.941,2.364 H 1.085 C 1.085,1.856 1.212,1.459 1.466,1.171 1.72,0.884 2.071,0.74 2.521,0.74 2.962,0.74 3.31,0.891 3.563,1.193 3.817,1.495 3.944,1.938 3.944,2.522 3.944,3.059 3.815,3.466 3.557,3.744 3.298,4.021 2.958,4.161 2.536,4.161 2.249,4.161 2.005,4.098 1.804,3.974 1.603,3.849 1.42,3.682 1.257,3.471 l -1.868,0.23 0.388,5.461 H 5.482 V 7.409 H 1.516 L 1.387,5.224 C 1.616,5.368 1.865,5.485 2.134,5.576 2.402,5.667 2.728,5.713 3.111,5.713 3.954,5.713 4.642,5.442 5.173,4.901 5.705,4.359 5.971,3.566 5.971,2.522 5.971,1.449 5.664,0.616 5.051,0.022 4.437,-0.572 3.595,-0.869 2.521,-0.869 1.468,-0.869 0.627,-0.58 0,0" /></g><g
           transform="translate(329.0631,352.0148)"
           id="g658"><path
             id="path660"
             style="fill:#223663;fill-opacity:1;fill-rule:nonzero;stroke:none"
             d="m 0,0 c -0.338,0 -0.611,0.274 -0.611,0.612 v 3.096 c 0,0.338 0.273,0.612 0.611,0.612 0.338,0 0.611,-0.274 0.611,-0.612 V 0.612 C 0.611,0.274 0.338,0 0,0" /></g><g
           transform="translate(338.4547,352.0148)"
           id="g662"><path
             id="path664"
             style="fill:#223663;fill-opacity:1;fill-rule:nonzero;stroke:none"
             d="m 0,0 c -0.338,0 -0.611,0.274 -0.611,0.612 v 3.096 c 0,0.338 0.273,0.612 0.611,0.612 0.338,0 0.611,-0.274 0.611,-0.612 V 0.612 C 0.611,0.274 0.338,0 0,0" /></g><g
           transform="translate(347.8473,352.0148)"
           id="g666"><path
             id="path668"
             style="fill:#223663;fill-opacity:1;fill-rule:nonzero;stroke:none"
             d="m 0,0 c -0.338,0 -0.611,0.274 -0.611,0.612 v 3.096 c 0,0.338 0.273,0.612 0.611,0.612 0.338,0 0.611,-0.274 0.611,-0.612 V 0.612 C 0.611,0.274 0.338,0 0,0" /></g><g
           transform="translate(278.8903,369.2922)"
           id="g670"><path
             id="path672"
             style="fill:#ffffff;fill-opacity:1;fill-rule:nonzero;stroke:none"
             d="m 0,0 c 0,-10.253 8.312,-18.565 18.564,-18.565 10.254,0 18.566,8.312 18.566,18.565 0,10.253 -8.312,18.565 -18.566,18.565 C 8.312,18.565 0,10.253 0,0" /></g><g
           transform="translate(297.4547,386.5637)"
           id="g674"><path
             id="path676"
             style="fill:#00b3a2;fill-opacity:1;fill-rule:nonzero;stroke:none"
             d="m 0,0 c -9.523,0 -17.271,-7.748 -17.271,-17.271 0,-9.524 7.748,-17.272 17.271,-17.272 9.524,0 17.271,7.748 17.271,17.272 C 17.271,-7.748 9.524,0 0,0 m 0,-37.13 c -10.949,0 -19.858,8.908 -19.858,19.859 0,10.949 8.909,19.858 19.858,19.858 10.95,0 19.859,-8.909 19.859,-19.858 C 19.859,-28.222 10.95,-37.13 0,-37.13" /></g><g
           transform="translate(305.4567,367.4011)"
           id="g678"><path
             id="path680"
             style="fill:#223663;fill-opacity:1;fill-rule:nonzero;stroke:none"
             d="m 0,0 h -8.607 c -0.438,0 -0.791,0.354 -0.791,0.792 v 12.671 c 0,0.436 0.353,0.791 0.791,0.791 0.437,0 0.791,-0.355 0.791,-0.791 V 1.583 H 0 C 0.437,1.583 0.791,1.228 0.791,0.792 0.791,0.354 0.437,0 0,0" /></g><g
           transform="translate(74.3317,208.8317)"
           id="g682"><path
             id="path684"
             style="fill:#ffb244;fill-opacity:1;fill-rule:nonzero;stroke:none"
             d="m 0,0 c 0,0 -13.826,82.467 0.553,102.806 5.437,7.691 30.12,2.152 30.12,2.152 C 42.469,93.022 48.511,80.65 52.838,64.437 57.166,48.223 65.061,13.158 66.534,-3.558 52.955,-3.59 0,0 0,0" /></g><g
           transform="translate(123.5001,218.3298)"
           id="g686"><path
             id="path688"
             style="fill:#ffcfab;fill-opacity:1;fill-rule:nonzero;stroke:none"
             d="M 0,0 C 0,0 13.479,-5.199 13.83,-10.377 14.139,-14.915 -1.346,-11.07 -1.346,-11.07 Z" /></g><g
           transform="translate(137.0997,207.1579)"
           id="g690"><path
             id="path692"
             style="fill:#223663;fill-opacity:1;fill-rule:nonzero;stroke:none"
             d="m 0,0 c -0.125,0 -0.25,0.045 -0.35,0.136 -1.422,1.305 -4.811,2.509 -4.845,2.52 -0.27,0.095 -0.411,0.391 -0.316,0.66 0.095,0.27 0.392,0.411 0.66,0.317 C -4.704,3.581 -1.227,2.346 0.35,0.899 0.561,0.706 0.575,0.378 0.381,0.168 0.279,0.057 0.14,0 0,0" /></g><g
           transform="translate(134.6749,205.5817)"
           id="g694"><path
             id="path696"
             style="fill:#223663;fill-opacity:1;fill-rule:nonzero;stroke:none"
             d="m 0,0 c -0.115,0 -0.231,0.038 -0.327,0.117 -1.248,1.021 -3.937,1.963 -3.964,1.972 -0.27,0.094 -0.413,0.39 -0.319,0.659 0.094,0.271 0.39,0.413 0.659,0.319 C -3.833,3.026 -1.061,2.054 0.328,0.918 0.549,0.737 0.582,0.411 0.401,0.189 0.299,0.064 0.15,0 0,0" /></g><g
           transform="translate(90.2799,277.7585)"
           id="g698"><path
             id="path700"
             style="fill:#ffb244;fill-opacity:1;fill-rule:nonzero;stroke:none"
             d="m 0,0 c -6.698,-24.096 -4.381,-24.119 -11.48,-47.356 14.14,-4.466 35.031,-4.989 47.784,-12.557 -0.322,-2.641 -1.232,-9.901 -1.906,-10.583 -1.074,-1.084 -56.431,-6.213 -70.013,8.057 -10.978,11.532 -2.993,79.815 21.245,97.448 C -6.719,40.574 0,0 0,0" /></g><g
           transform="translate(107.5211,204.7331)"
           id="g702"><path
             id="path704"
             style="fill:#223663;fill-opacity:1;fill-rule:nonzero;stroke:none"
             d="m 0,0 c -0.286,0 -0.518,0.231 -0.518,0.518 0,0.286 0.232,0.517 0.518,0.517 2.797,0 14.067,0.981 16.299,1.177 l 2.141,10.482 c -8.327,3.535 -18.424,5.701 -28.194,7.796 -6.878,1.476 -13.374,2.869 -19.123,4.686 -0.271,0.085 -0.423,0.373 -0.34,0.644 3.758,12.299 4.889,18.17 6.087,24.387 1.101,5.713 2.239,11.622 5.39,22.957 0.076,0.276 0.362,0.44 0.637,0.36 0.276,-0.076 0.437,-0.362 0.36,-0.637 -3.139,-11.295 -4.274,-17.183 -5.371,-22.876 -1.187,-6.16 -2.309,-11.984 -5.963,-24.001 5.583,-1.728 11.882,-3.079 18.54,-4.507 9.971,-2.139 20.28,-4.351 28.775,-8.024 0.224,-0.097 0.35,-0.338 0.302,-0.579 L 17.236,1.627 C 17.19,1.402 17.003,1.235 16.775,1.215 16.22,1.165 3.139,0 0,0" /></g><g
           transform="translate(167.6188,327.4792)"
           id="g706"><path
             id="path708"
             style="fill:#ffcfab;fill-opacity:1;fill-rule:nonzero;stroke:none"
             d="m 0,0 c -2.627,0.177 -3.393,-2.548 -3.484,3.421 -0.048,3.142 -1.52,6.723 -1.796,9.369 -0.141,1.348 0.488,1.982 0.887,2.222 0.665,0.398 1.351,0.015 1.351,0.015 0.222,1.066 1.79,0.924 2.116,0.876 0.633,-0.091 1.018,-0.702 1.018,-0.702 0,0 0.283,0.82 1.706,0.784 0.861,-0.022 1.346,-0.27 1.605,-0.822 0,0 1.635,0.42 2.149,-0.82 C 5.806,13.732 7.169,9.982 7.302,3.182 7.384,-1.007 5.728,-0.352 3.206,-0.182 Z" /></g><g
           transform="translate(171.7829,335.0109)"
           id="g710"><path
             id="path712"
             style="fill:#223663;fill-opacity:1;fill-rule:nonzero;stroke:none"
             d="M 0,0 C -0.318,0 -0.581,0.253 -0.59,0.573 -0.679,3.446 -1.169,7.095 -1.174,7.129 -1.22,7.448 -1.003,7.747 -0.685,7.798 -0.363,7.847 -0.066,7.64 -0.008,7.323 -0.003,7.298 0.5,3.592 0.591,0.609 0.602,0.283 0.345,0.01 0.019,0 0.013,0 0.006,0 0,0" /></g><g
           transform="translate(168.8703,335.1462)"
           id="g714"><path
             id="path716"
             style="fill:#223663;fill-opacity:1;fill-rule:nonzero;stroke:none"
             d="M 0,0 C -0.318,0 -0.581,0.253 -0.59,0.573 -0.679,3.45 -1.417,7.243 -1.424,7.28 -1.488,7.6 -1.28,7.911 -0.961,7.975 -0.641,8.042 -0.331,7.833 -0.265,7.513 -0.258,7.476 0.5,3.58 0.591,0.609 0.602,0.283 0.345,0.011 0.019,0 0.013,0 0.006,0 0,0" /></g><g
           transform="translate(165.8991,335.1013)"
           id="g718"><path
             id="path720"
             style="fill:#223663;fill-opacity:1;fill-rule:nonzero;stroke:none"
             d="m 0,0 c -0.318,0 -0.581,0.253 -0.59,0.573 -0.091,2.948 -0.821,6.708 -0.852,6.866 -0.061,0.313 0.134,0.625 0.444,0.698 0.311,0.074 0.619,-0.105 0.703,-0.412 0.004,-0.017 0.01,-0.041 0.013,-0.058 C -0.25,7.504 0.498,3.652 0.591,0.609 0.602,0.283 0.345,0.01 0.019,0 0.012,0 0.006,0 0,0" /></g><g
           transform="translate(159.9162,336.3893)"
           id="g722"><path
             id="path724"
             style="fill:#ffcfab;fill-opacity:1;fill-rule:nonzero;stroke:none"
             d="m 0,0 c -1.153,-0.891 0.407,-3.171 1.907,-5.028 0.71,-0.88 1.555,-2.125 2.276,-2.449 1.062,-0.479 0.695,3.86 0.695,3.86 0,0 -2.565,5.406 -4.878,3.617" /></g><g
           transform="translate(163.7594,333.3625)"
           id="g726"><path
             id="path728"
             style="fill:#223663;fill-opacity:1;fill-rule:nonzero;stroke:none"
             d="M 0,0 C -0.219,0 -0.43,0.122 -0.532,0.332 -0.54,0.348 -1.303,1.896 -2.399,2.723 -2.66,2.919 -2.711,3.29 -2.515,3.55 -2.318,3.811 -1.946,3.863 -1.687,3.666 -0.36,2.665 0.496,0.923 0.531,0.849 0.674,0.556 0.551,0.203 0.258,0.06 0.175,0.019 0.087,0 0,0" /></g><g
           transform="translate(161.3771,327.9567)"
           id="g730"><path
             id="path732"
             style="fill:#ffb244;fill-opacity:1;fill-rule:nonzero;stroke:none"
             d="m 0,0 c 0.303,-7.293 -4.755,-40.627 -8.365,-40.627 -8.293,0 -31.003,16.482 -45.732,23.847 l 5.962,-37.875 c 7.057,-3.011 37.52,-18.077 49.385,-12.897 22.317,9.744 14.285,69.934 14.285,69.934 z" /></g><g
           transform="translate(131.0026,253.7927)"
           id="g734"><path
             id="path736"
             style="fill:#223663;fill-opacity:1;fill-rule:nonzero;stroke:none"
             d="m 0,0 c -0.26,0 -0.484,0.196 -0.514,0.46 -4.011,36.1 -23.384,56.362 -23.579,56.562 -0.199,0.206 -0.195,0.533 0.01,0.732 0.204,0.201 0.531,0.196 0.731,-0.009 C -23.154,57.542 -3.538,37.046 0.515,0.575 0.546,0.291 0.342,0.035 0.058,0.003 0.038,0.001 0.019,0 0,0" /></g><g
           transform="translate(78.8092,330.7717)"
           id="g738"><path
             id="path740"
             style="fill:#223663;fill-opacity:1;fill-rule:nonzero;stroke:none"
             d="m 0,0 c 0,0 -6.16,0.205 -6.442,8.772 0,0 4.343,-1.427 6.138,-1.391 0,0 0.185,-7.679 0.304,-7.381" /></g><g
           transform="translate(121.799,368.7487)"
           id="g742"><path
             id="path744"
             style="fill:#ffcfab;fill-opacity:1;fill-rule:nonzero;stroke:none"
             d="m 0,0 c 0.854,-3.566 2.514,-9.974 3.039,-13.597 0.993,-6.868 1.704,-11.47 0.909,-18.398 -0.447,-3.89 -1.711,-7.789 -4.2,-11.03 -4.759,-6.195 -18.046,-5.32 -18.046,-5.32 l 0.527,-7.77 c 0,0 -12.143,-5.009 -23.976,0.409 l -1.819,23.715 c 0,0 -4.959,-0.009 -8.062,2.28 -3.035,2.24 -2.34,11.087 4.705,11.076 6.523,-0.01 7.26,-0.84 7.26,-0.84 l 6.637,17.502 z" /></g><g
           transform="translate(73.3903,343.5241)"
           id="g746"><path
             id="path748"
             style="fill:#223663;fill-opacity:1;fill-rule:nonzero;stroke:none"
             d="M 0,0 C -0.14,0 -0.279,0.056 -0.382,0.168 -0.575,0.378 -0.561,0.706 -0.35,0.899 1.392,2.496 4.729,2.925 4.871,2.943 5.161,2.979 5.413,2.776 5.448,2.493 5.483,2.209 5.282,1.951 4.999,1.916 4.967,1.912 1.846,1.508 0.35,0.136 0.25,0.045 0.125,0 0,0" /></g><g
           transform="translate(76.6574,341.2917)"
           id="g750"><path
             id="path752"
             style="fill:#223663;fill-opacity:1;fill-rule:nonzero;stroke:none"
             d="M 0,0 C -0.198,0 -0.387,0.114 -0.473,0.306 -0.904,1.267 -1.267,2.485 -1.55,3.925 -1.605,4.206 -1.423,4.478 -1.143,4.533 -0.862,4.59 -0.59,4.406 -0.535,4.125 -0.2,2.427 0.197,1.341 0.472,0.729 0.589,0.469 0.472,0.162 0.211,0.045 0.143,0.014 0.071,0 0,0" /></g><g
           transform="translate(106.0455,349.2941)"
           id="g754"><path
             id="path756"
             style="fill:#223663;fill-opacity:1;fill-rule:nonzero;stroke:none"
             d="M 0,0 C 0.074,-0.914 0.908,-1.592 1.864,-1.516 2.819,-1.44 3.534,-0.637 3.46,0.276 3.387,1.19 2.552,1.869 1.597,1.792 0.641,1.716 -0.074,0.914 0,0" /></g><g
           transform="translate(117.5421,349.0485)"
           id="g758"><path
             id="path760"
             style="fill:#223663;fill-opacity:1;fill-rule:nonzero;stroke:none"
             d="M 0,0 C 0.728,-0.592 1.823,-0.505 2.447,0.195 3.07,0.896 2.986,1.943 2.258,2.535 1.53,3.127 0.434,3.04 -0.189,2.339 -0.813,1.64 -0.728,0.592 0,0" /></g><g
           transform="translate(112.2702,338.3)"
           id="g762"><path
             id="path764"
             style="fill:#223663;fill-opacity:1;fill-rule:nonzero;stroke:none"
             d="M 0,0 C -0.538,0 -1.087,0.067 -1.626,0.203 -2.73,0.481 -3.701,1.012 -4.433,1.738 -4.636,1.939 -4.638,2.267 -4.437,2.47 -4.235,2.673 -3.908,2.674 -3.705,2.473 -3.112,1.886 -2.284,1.437 -1.374,1.207 -0.371,0.956 0.663,0.98 1.54,1.277 1.809,1.368 2.104,1.224 2.196,0.953 2.288,0.683 2.143,0.389 1.872,0.297 1.289,0.099 0.652,0 0,0" /></g><g
           transform="translate(103.5519,317.57)"
           id="g766"><path
             id="path768"
             style="fill:#223663;fill-opacity:1;fill-rule:nonzero;stroke:none"
             d="m 0,0 -11.674,2.897 c 0,0 0.177,1.489 0.538,1.352 C -7.77,2.97 -0.148,2.8 -0.148,2.8 Z" /></g><g
           transform="translate(109.507,356.2258)"
           id="g770"><path
             id="path772"
             style="fill:#223663;fill-opacity:1;fill-rule:nonzero;stroke:none"
             d="m 0,0 c -1.179,0.878 -4.272,-0.025 -5.139,-0.482 0,0 -0.597,-0.873 0.163,-1.657 0.885,-0.914 3.769,-0.134 4.847,0.011 0.087,0.012 0.178,0.025 0.25,0.075 0.087,0.061 0.129,0.164 0.163,0.261 0.131,0.37 0.229,0.767 0.139,1.146 C 0.357,-0.367 0.209,-0.155 0,0" /></g><g
           transform="translate(121.0377,357.0134)"
           id="g774"><path
             id="path776"
             style="fill:#223663;fill-opacity:1;fill-rule:nonzero;stroke:none"
             d="m 0,0 c -1.16,0.902 -4.271,0.058 -5.148,-0.382 0,0 -0.615,-0.862 0.128,-1.66 0.866,-0.931 3.765,-0.207 4.845,-0.083 0.088,0.01 0.179,0.022 0.252,0.07 0.089,0.059 0.132,0.161 0.169,0.259 0.138,0.366 0.245,0.761 0.163,1.142 C 0.349,-0.373 0.205,-0.159 0,0" /></g><g
           transform="translate(71.8854,373.4709)"
           id="g778"><path
             id="path780"
             style="fill:#223663;fill-opacity:1;fill-rule:nonzero;stroke:none"
             d="m 0,0 c -4.85,-7.827 -3.917,-18.966 -1.694,-25.124 0,0 7.099,3.324 12.604,-0.105 1.81,-1.127 1.136,-6.532 6.302,-5.991 4.769,0.499 2.915,11.835 2.399,20.854 0,0 25.204,-0.995 30.095,5.62 C 51.403,-2.449 51.592,2 46.432,6.034 38.708,12.071 3.854,6.22 0,0" /></g><g
           transform="translate(91.9074,309.4142)"
           id="g782"><path
             id="path784"
             style="fill:#223663;fill-opacity:1;fill-rule:nonzero;stroke:none"
             d="m 0,0 c -2.442,0 -4.527,0.325 -6.193,0.74 -4.431,1.103 -6.898,3.019 -7.001,3.1 -0.224,0.177 -0.263,0.502 -0.086,0.726 0.176,0.226 0.502,0.264 0.726,0.088 0.095,-0.075 9.692,-7.385 24.739,-0.976 0.265,0.113 0.568,-0.01 0.679,-0.273 C 12.977,3.142 12.854,2.838 12.591,2.726 7.777,0.675 3.518,0 0,0" /></g></g></g></g></svg>